<?xml version="1.0" encoding="UTF-8"?><svg id="_レイヤー_2" xmlns="http://www.w3.org/2000/svg" viewBox="0 0 268.64 61.21"><defs><style>.cls-1{stroke-width:0px;}</style></defs><g id="_レイヤー_1-2"><path class="cls-1" d="M6.19,41.62h3.6c0,4.46-3.6,7.99-7.99,7.99H0V14.62h3.6v31.03c1.51-.72,2.59-2.23,2.59-4.03ZM29.59,23.26v11.38c1.8.36,3.53,1.22,4.82,2.59,1.8,1.73,2.81,4.1,2.81,6.62h-3.6c0-1.58-.65-3.02-1.73-4.1-.65-.65-1.44-1.08-2.3-1.37v14.83h-1.8c-5.18,0-9.36-4.18-9.36-9.36,0-2.52.94-4.9,2.74-6.62,1.3-1.37,3.02-2.23,4.82-2.59v-11.38h-10.37v-3.6h10.37v-8.64h3.6v8.64h10.44v3.6h-10.44ZM25.99,38.38c-.86.29-1.66.72-2.3,1.37-1.08,1.08-1.66,2.52-1.66,4.1,0,2.59,1.66,4.75,3.96,5.47v-10.95Z"/><path class="cls-1" d="M82.58,14.62v24.7c0,4.68,3.82,8.5,8.57,8.5s8.5-3.82,8.5-8.5h3.6c0,6.7-5.47,12.1-12.1,12.1s-12.17-5.4-12.17-12.1V14.62h3.6Z"/><path class="cls-1" d="M184.97,40.54l-2.59,2.59-14.62-14.62c-1.22-1.3-2.88-1.94-4.68-1.94s-3.38.65-4.68,1.94l-14.54,14.62-2.59-2.59,14.62-14.62c1.94-1.87,4.54-2.95,7.2-2.95s5.33,1.08,7.27,2.95l14.62,14.62ZM180.44,18.15v-3.6h3.6v3.6h-3.6ZM180.44,25.35v-3.6h3.6v3.6h-3.6Z"/><path class="cls-1" d="M209.45,27.72c-.86,0-1.3-.65-1.3-1.3,0-.72.5-1.37,1.37-1.37h3.24c4.61,0,10.44.07,14.33.07,2.52,0,3.82.86,3.82,2.02,0,.65-.14,2.52-7.99,5.83.43.36.72.72,1.01,1.15,3.31-.29,6.34-.65,8.64-1.01h.29c.72,0,1.22.58,1.22,1.22,0,1.37-.79,1.51-8.86,2.3.14.58.22,1.22.22,1.8,0,2.02-1.15,7.34-8.42,7.34-1.44,0-6.19-.22-6.19-2.16,0-.72.58-1.37,1.44-1.37.14,0,.29,0,.5.07,1.37.36,2.66.58,3.96.58,5.69,0,5.69-4.54,5.69-4.82,0-.36-.07-.79-.22-1.15-7.49.65-13.32.86-15.34.86-1.15,0-1.66-.72-1.66-1.44s.58-1.44,1.66-1.44c3.82,0,8.71-.14,13.47-.5-.79-.58-1.94-1.08-3.31-1.44-.72-.14-1.01-.58-1.01-1.01,0-.65.72-1.44,1.73-1.44.22,0,1.44.29,2.66.86,3.1-1.22,6.41-2.95,6.41-3.53,0-.22-.43-.29-1.37-.29-3.31.07-11.16,0-15.91.14h-.07ZM207,9.29c-1.01,0-1.58-.79-1.58-1.51,0-.79.58-1.51,1.58-1.51l11.52.07-.07-4.75c0-1.08.94-1.58,1.94-1.58.94,0,1.94.5,1.94,1.58l-.07,4.75,11.09-.07c1.08,0,1.58.72,1.58,1.51,0,.72-.5,1.51-1.58,1.51h-26.35ZM207.07,61.21c-1.08,0-1.58-.79-1.58-1.58,0-.86.5-1.66,1.58-1.66l26.14.07v-6.05l-18.43.07c-1.08,0-1.66-.79-1.66-1.51,0-.79.58-1.58,1.66-1.58l18.36.07v-2.52c0-1.15.94-1.73,1.94-1.73.94,0,1.87.58,1.87,1.73l-.07,2.52,18.65-.07c1.08,0,1.58.79,1.58,1.51,0,.79-.5,1.58-1.58,1.58l-18.65-.07v6.05l26.64-.07c1.08,0,1.58.79,1.58,1.66,0,.79-.5,1.58-1.58,1.58h-56.45ZM220.46,21.89c-10.37,0-11.38-.65-11.45-3.17v-2.3c0-3.96,1.51-3.96,11.38-3.96,10.8,0,11.23.07,11.23,5.33,0,3.74-1.3,4.1-11.16,4.1ZM225.79,14.83c-1.73-.07-3.53-.07-5.4-.07s-3.67,0-5.54.07c-2.59.07-2.59.86-2.59,3.17.07,1.3.65,1.58,7.63,1.58,7.42,0,8.42-.14,8.5-1.51,0-2.59,0-3.24-2.59-3.24ZM247.83,10.87c1.51,0,3.02.07,4.39.07,4.61.07,6.62,2.3,6.62,5.47v.14c-.07,3.1-.36,6.91-.36,10.73,0,12.1,2.88,15.63,3.82,15.63,1.44,0,2.66-4.18,2.81-6.48.07-1.08.79-1.58,1.58-1.58.94,0,1.94.72,1.94,1.94,0,2.59-2.3,10.08-6.55,10.08-7.06,0-7.06-17.71-7.06-19.51,0-3.67.22-7.27.29-10.08v-.29c0-2.23-.94-2.88-3.67-2.95-1.08,0-2.45-.07-3.89-.07-.22,4.39-.65,8.79-1.87,12.96.86.86,6.05,5.69,6.05,7.27,0,1.01-1.01,1.94-2.02,1.94-.5,0-.94-.22-1.3-.79-1.01-1.66-2.38-3.38-3.96-5.04-3.46,8.57-10.87,14.47-12.6,14.47-1.08,0-1.94-.79-1.94-1.66,0-.43.22-.86.72-1.22,6.12-4.25,9.43-9,11.3-14.04-1.58-1.44-3.24-2.81-4.82-3.89-.43-.29-.65-.72-.65-1.08,0-.79.79-1.51,1.73-1.51.79,0,2.52,1.3,4.75,3.17.79-3.46,1.08-6.98,1.15-10.58-2.45,0-4.97.07-7.06.07-1.08,0-1.58-.79-1.58-1.58,0-.72.5-1.51,1.58-1.51l7.06-.07c0-2.52-.07-5.33-.07-8.71,0-1.01.94-1.51,1.87-1.51s1.87.5,1.87,1.51l-.14,8.71Z"/></g></svg>